<svg width="257" height="160" viewBox="0 0 257 160" fill="none" xmlns="http://www.w3.org/2000/svg">
<path d="M11.1739 0H245.826C251.997 0 257 4.90647 257 10.9589V149.041C257 155.094 251.997 160 245.826 160H11.1739C5.00273 160 0 155.094 0 149.041V10.9589C0 4.90647 5.00273 0 11.1739 0Z" fill="#1573FF"/>
<mask id="mask0_895_1402" style="mask-type:alpha" maskUnits="userSpaceOnUse" x="0" y="0" width="257" height="160">
<path d="M11.1739 0H245.826C251.997 0 257 4.90647 257 10.9589V149.041C257 155.094 251.997 160 245.826 160H11.1739C5.00275 160 0 155.094 0 149.041V10.9589C0 4.90647 5.00275 0 11.1739 0Z" fill="#DAEBFF"/>
</mask>
<g mask="url(#mask0_895_1402)">
<path d="M210.472 252.684C133.773 252.684 71.5967 191.703 71.5967 116.48C71.5967 41.2568 133.773 -19.7236 210.472 -19.7236C287.171 -19.7236 349.348 41.2568 349.348 116.48C349.348 191.703 287.171 252.684 210.472 252.684Z" fill="#1E1671"/>
<path d="M6.38332 100.195C-35.0518 100.195 -68.6416 67.2514 -68.6416 26.6136C-68.6416 -14.0243 -35.0518 -46.9678 6.38332 -46.9678C47.8184 -46.9678 81.4082 -14.0243 81.4082 26.6136C81.4082 67.2514 47.8184 100.195 6.38332 100.195Z" fill="#4EB4FF"/>
<rect y="24" width="257" height="29.1755" fill="white" fill-opacity="0.2"/>
<rect width="208.214" height="37.7565" rx="9" transform="matrix(-1 0 0 1 229.122 58.3242)" fill="white"/>
</g>
</svg>
