<svg width="258" height="161" viewBox="0 0 258 161" fill="none" xmlns="http://www.w3.org/2000/svg">
<path d="M246.174 0.967773H11.5221C5.35088 0.967773 0.348145 5.87424 0.348145 11.9267V150.009C0.348145 156.061 5.35088 160.968 11.5221 160.968H246.174C252.345 160.968 257.348 156.061 257.348 150.009V11.9267C257.348 5.87424 252.345 0.967773 246.174 0.967773Z" fill="#1573FF"/>
<mask id="mask0_895_1388" style="mask-type:alpha" maskUnits="userSpaceOnUse" x="0" y="0" width="258" height="161">
<path d="M246.174 0.967773H11.5221C5.35088 0.967773 0.348145 5.87424 0.348145 11.9267V150.009C0.348145 156.061 5.35088 160.968 11.5221 160.968H246.174C252.345 160.968 257.348 156.061 257.348 150.009V11.9267C257.348 5.87424 252.345 0.967773 246.174 0.967773Z" fill="#DAEBFF"/>
</mask>
<g mask="url(#mask0_895_1388)">
<path d="M46.8757 253.651C123.575 253.651 185.751 192.671 185.751 117.448C185.751 42.2246 123.575 -18.7559 46.8757 -18.7559C-29.8232 -18.7559 -92 42.2246 -92 117.448C-92 192.671 -29.8232 253.651 46.8757 253.651Z" fill="#1E1671"/>
<path d="M250.965 101.163C292.4 101.163 325.99 68.2192 325.99 27.5813C325.99 -13.0565 292.4 -46 250.965 -46C209.53 -46 175.94 -13.0565 175.94 27.5813C175.94 68.2192 209.53 101.163 250.965 101.163Z" fill="#4EB4FF"/>
</g>
</svg>
